<?xml version="1.0" encoding="utf-8"?>
<!-- Generator: Adobe Illustrator 14.0.0, SVG Export Plug-In . SVG Version: 6.00 Build 43363)  -->
<!DOCTYPE svg PUBLIC "-//W3C//DTD SVG 1.1//EN" "http://www.w3.org/Graphics/SVG/1.1/DTD/svg11.dtd">
<svg version="1.1" id="Calque_1" xmlns="http://www.w3.org/2000/svg" xmlns:xlink="http://www.w3.org/1999/xlink" x="0px" y="0px"
	 width="429.089px" height="500.002px" viewBox="0 0 429.089 500.002" enable-background="new 0 0 429.089 500.002"
	 xml:space="preserve">
<g id="Слой_1" transform="translate(0 0.002)">
	<path id="Tracé_1" opacity="0.4" fill="#D6D8E5" enable-background="new    " d="M164.78,300.515l-34.63-19.881l37.15-21.438
		l34.63,19.881L164.78,300.515z"/>
	<path id="Tracé_2" fill="#EFDA86" d="M168.661,255.874l-37.141-21.45l37.141-21.45l38.149,21.45L168.661,255.874z"/>
	<path id="Tracé_3" fill="#D1B66B" d="M204.3,278.265l-35.64,20v-40l35.64-19.991V278.265z"/>
	<path id="Tracé_4" fill="#E2C979" d="M168.661,298.265l-34.631-20v-39.991l34.631,19.991V298.265z"/>
	<path id="Tracé_5" opacity="0.1" enable-background="new    " d="M134.03,238.274v10.46l34.631,19.771v-10.191L134.03,238.274z"/>
	<path id="Tracé_6" opacity="0.1" enable-background="new    " d="M204.3,238.274v11.21l-35.64,19.021v-10.191L204.3,238.274z"/>
	<path id="Tracé_7" fill="#E2C979" d="M131.521,234.424v11.09l37.141,21.161v-10.801L131.521,234.424z"/>
	<path id="Tracé_8" fill="#D1B66B" d="M168.661,266.675l38.149-20.291v-11.96l-38.149,21.45V266.675L168.661,266.675z"/>
	<path id="Tracé_9" opacity="0.4" fill="#D6D8E5" enable-background="new    " d="M307,370L196.28,306.24
		c-1.953-1.134-2.619-3.636-1.486-5.591c0.391-0.674,0.965-1.221,1.657-1.58l13.93-7.18c1.235-0.632,2.706-0.599,3.91,0.09
		l114.45,65.899c1.955,1.121,2.631,3.615,1.508,5.569c-0.393,0.685-0.975,1.24-1.678,1.601l-10.109,5.212
		C314.845,372.133,310.528,372.034,307,370z"/>
	<path id="Tracé_10" fill="#B1B4C4" d="M313.8,358l-94.36-54.479c-8-4.609-14.47-17-14.47-27.649V12.68
		C205,2,211.45-2.88,219.44,1.74l94.36,54.47c8,4.62,14.469,17,14.469,27.65v263.2C328.269,357.72,321.791,362.61,313.8,358z"/>
	<path id="Tracé_11" fill="#B1B4C4" d="M315.419,362.74l7.471-3.78l-7.17-12.29L315.419,362.74z"/>
	<path id="Tracé_12" fill="#B1B4C4" d="M203.51,4.36l6.88-3.61L209,10.9L203.51,4.36z"/>
	<path id="Tracé_13" fill="#616E84" d="M307.781,361L213.43,306.52c-8-4.61-14.47-17-14.47-27.65V15.69
		C199,5,205.44,0.13,213.43,4.74l94.352,54.48c8,4.62,14.479,17,14.479,27.65v263.2C322.259,360.72,315.781,365.62,307.781,361z"/>
	<path id="Tracé_14" fill="#20232D" d="M321.25,87.54v263.189c0,10.67-6.469,15.561-14.469,10.951l-37.002-21.36l-11.51-6.65
		l-45.85-26.47c-8-4.62-14.46-17-14.46-27.65V16.36C198,5.69,204.43,0.8,212.42,5.41l94.361,54.48
		C314.781,64.51,321.25,76.88,321.25,87.54z"/>
	<path id="Tracé_15" fill="#FFFFFF" d="M314.442,84.87v256.34c0,6.46-4.531,9.08-10.111,5.84l-5-2.9l-17.141-9.889L274.82,330
		l-2.6-1.51l-0.87-0.511L265,324.33l-18.449-10.64l0,0l-7.6-4.392l0,0l-3.08-1.778l-18.4-10.621l-2.51-1.449
		c-5.601-3.23-10.12-11.08-10.12-17.551V21.54c0-6.46,4.52-9.08,10.12-5.85L251.72,37v0.1c0.299,5.549,3.226,10.623,7.88,13.66
		c4.36,2.5,7.891,0.47,7.891-4.55V46.1l36.85,21.27C309.91,70.56,314.442,78.41,314.442,84.87z"/>
	
		<ellipse id="Ellipse_1" transform="matrix(-0.867 0.4983 -0.4983 -0.867 508.8218 -46.611)" fill="#2B303F" cx="260.631" cy="44.591" rx="2.447" ry="4.245"/>
	<path id="Tracé_16" opacity="0.1" fill="#FFFFFF" enable-background="new    " d="M259.6,45.85
		c-0.739-0.483-1.202-1.289-1.25-2.17c0-0.8,0.561-1.12,1.25-0.72c0.745,0.479,1.214,1.286,1.26,2.17
		C260.86,45.93,260.3,46.25,259.6,45.85z"/>
	<path id="Tracé_17" fill="#757B89" d="M325.08,122.17L325.08,122.17c-0.771,0.45-1.389,0-1.389-1V109.9
		c0.012-1.057,0.528-2.045,1.389-2.66l0,0c0.77-0.45,1.391,0,1.391,1.05v11.22C326.457,120.567,325.942,121.555,325.08,122.17z"/>
	<path id="Tracé_18" fill="#757B89" d="M325.08,140.56L325.08,140.56c-0.771,0.44-1.389,0-1.389-1.05v-11.23
		c0.018-1.057,0.532-2.042,1.389-2.66l0,0c0.77-0.44,1.391,0,1.391,1.06v11.22C326.455,138.957,325.94,139.944,325.08,140.56z"/>
	<path id="Tracé_19" fill="#E9EAF2" d="M293.839,172.51l-71-41c-3-1.74-5.459-6.41-5.459-10.44v-80c0-4,2.438-5.87,5.459-4.13
		l71,41c3,1.74,5.461,6.41,5.461,10.43v80C299.3,172.4,296.86,174.25,293.839,172.51z"/>
	<path id="Tracé_20" fill="#E9EAF2" d="M293.839,279.56l-71-41c-3-1.74-5.459-6.41-5.459-10.43v-80c0-4,2.438-5.87,5.459-4.13
		l71,41c3,1.74,5.461,6.41,5.461,10.44v80C299.3,279.45,296.86,281.3,293.839,279.56z"/>
	<path id="Tracé_21" fill="#E9EAF2" d="M299.31,302.46v41.689L274.82,330l-2.6-1.51l-0.87-0.511L265,324.33l-18.449-10.64l0,0
		l-7.65-4.41l-3.08-1.78l-18.399-10.62v-41.699c0-4,2.451-5.86,5.461-4.121l71,41C296.86,293.77,299.31,298.44,299.31,302.46z"/>
	<path id="Tracé_26" opacity="0.1" enable-background="new    " d="M305.41,98.86L216.759,48V16.59l88.65,50.85L305.41,98.86
		L305.41,98.86z"/>
	<path id="Tracé_27" fill="#175298" d="M198.5,45.32l-10.92-6.31l29.489-22.06l10.921,6.3L198.5,45.32z"/>
	<path id="Tracé_28" fill="#F4F5F9" d="M209.43,51.62l-10.93-6.3l29.49-22.07l10.92,6.31L209.43,51.62z"/>
	<path id="Tracé_29" fill="#175298" d="M220.35,57.93l-10.92-6.31l29.479-22.06l10.92,6.3L220.35,57.93z"/>
	<path id="Tracé_30" fill="#F4F5F9" d="M231.27,64.23l-10.92-6.3l29.479-22.07l10.92,6.31L231.27,64.23z"/>
	<path id="Tracé_31" fill="#175298" d="M242.19,70.54l-10.92-6.31l29.479-22.06l10.92,6.3L242.19,70.54z"/>
	<path id="Tracé_32" fill="#F4F5F9" d="M253.11,76.84l-10.92-6.3l29.479-22.07l10.92,6.31L253.11,76.84z"/>
	<path id="Tracé_33" fill="#175298" d="M264.03,83.15l-10.92-6.31l29.479-22.06l10.92,6.3L264.03,83.15z"/>
	<path id="Tracé_34" fill="#F4F5F9" d="M274.951,89.45l-10.922-6.3l29.479-22.07l10.931,6.31L274.951,89.45z"/>
	<path id="Tracé_35" fill="#175298" d="M193.12,48.39c3,1.74,5.46,0.33,5.46-3.15l-10.92-6.31
		C187.871,42.772,189.898,46.286,193.12,48.39L193.12,48.39z"/>
	<path id="Tracé_36" fill="#F4F5F9" d="M204.05,54.69c3,1.75,5.46,0.33,5.46-3.15l-10.93-6.3
		C198.792,49.082,200.823,52.593,204.05,54.69L204.05,54.69z"/>
	<path id="Tracé_37" fill="#175298" d="M215,61c3,1.74,5.46,0.33,5.46-3.15l-10.92-6.31C209.746,55.384,211.774,58.899,215,61z"/>
	<path id="Tracé_38" fill="#F4F5F9" d="M225.89,67.31c3,1.74,5.46,0.32,5.46-3.16l-10.92-6.3
		C220.639,61.693,222.667,65.206,225.89,67.31L225.89,67.31z"/>
	<path id="Tracé_39" fill="#175298" d="M236.81,73.61c3,1.74,5.46,0.33,5.46-3.15l-10.92-6.31
		C231.556,67.994,233.584,71.509,236.81,73.61L236.81,73.61z"/>
	<path id="Tracé_40" fill="#F4F5F9" d="M247.73,79.92c3,1.74,5.46,0.33,5.46-3.16l-10.92-6.3
		C242.479,74.303,244.507,77.816,247.73,79.92L247.73,79.92z"/>
	<path id="Tracé_41" fill="#175298" d="M258.65,86.22c3,1.74,5.46,0.33,5.46-3.15l-10.92-6.31
		C253.386,80.607,255.417,84.126,258.65,86.22z"/>
	<path id="Tracé_42" fill="#F4F5F9" d="M269.57,92.53c3,1.74,5.46,0.33,5.46-3.16l-10.92-6.3
		C264.319,86.913,266.347,90.427,269.57,92.53z"/>
	<g id="Groupe_1" opacity="0.15">
		<path id="Tracé_43" d="M193.12,48.39c3,1.74,5.46,0.33,5.46-3.15l-10.92-6.31C187.871,42.772,189.898,46.286,193.12,48.39
			L193.12,48.39z"/>
		<path id="Tracé_44" d="M204.05,54.69c3,1.75,5.46,0.33,5.46-3.15l-10.93-6.3C198.792,49.082,200.823,52.593,204.05,54.69
			L204.05,54.69z"/>
		<path id="Tracé_45" d="M215,61c3,1.74,5.46,0.33,5.46-3.15l-10.92-6.31C209.746,55.384,211.774,58.899,215,61z"/>
		<path id="Tracé_46" d="M225.89,67.31c3,1.74,5.46,0.32,5.46-3.16l-10.92-6.3C220.639,61.693,222.667,65.206,225.89,67.31
			L225.89,67.31z"/>
		<path id="Tracé_47" d="M236.81,73.61c3,1.74,5.46,0.33,5.46-3.15l-10.92-6.31C231.556,67.994,233.584,71.509,236.81,73.61
			L236.81,73.61z"/>
		<path id="Tracé_48" d="M247.73,79.92c3,1.74,5.46,0.33,5.46-3.16l-10.92-6.3C242.479,74.303,244.507,77.816,247.73,79.92
			L247.73,79.92z"/>
		<path id="Tracé_49" d="M258.65,86.22c3,1.74,5.46,0.33,5.46-3.15l-10.92-6.31C253.386,80.607,255.417,84.126,258.65,86.22z"/>
		<path id="Tracé_50" d="M269.57,92.53c3,1.74,5.46,0.33,5.46-3.16l-10.92-6.3C264.319,86.913,266.347,90.427,269.57,92.53z"/>
	</g>
	<path id="Tracé_58" opacity="0.4" fill="#D6D8E5" enable-background="new    " d="M345.259,423.43l-56.899-32.829l7.141-4.149
		l56.9,32.84L345.259,423.43z"/>
	<path id="Tracé_59" fill="#105584" d="M367.24,411.04l-57.119-32.98l7.139-65.14l42.84,24.74L367.24,411.04z"/>
	<path id="Tracé_60" fill="#175298" d="M352.401,419.29l-57.131-32.98l7.141-65.14l42.85,24.729L352.401,419.29z"/>
	<path id="Tracé_61" fill="#347BC1" d="M352.401,419.29l14.84-8.25l-7.142-73.38l-14.84,8.239L352.401,419.29z"/>
	<path id="Tracé_62" fill="#105584" d="M302.41,321.17l14.85-8.25l-1.74,15.82L302.41,321.17z"/>
	<path id="Tracé_63" fill="#20232D" d="M334.541,339.57l-2.641-1.57c0-6.149-3.619-13.239-8.062-15.8
		c-4.438-2.561-8.07,0.34-8.07,6.49l-2.639-1.521c0-7.83,4.799-11.43,10.709-8C329.75,322.601,334.541,331.74,334.541,339.57z"/>
	<path id="Tracé_64" fill="#20232D" d="M348.47,331.06l-2.641-1.528c0-6.15-3.619-13.24-8.062-15.812
		c-4.438-2.57-8.067,0.352-8.067,6.5l-2.642-1.52c0-7.84,4.812-11.43,10.709-8C343.669,314.13,348.47,323.22,348.47,331.06z"/>
	<g id="Men_2">
		
			<ellipse id="Ellipse_2" opacity="0.4" fill="#D6D8E5" enable-background="new    " cx="43.6" cy="474.83" rx="43.601" ry="25.17"/>
		<path id="_Контур_" fill="#FFCEA9" d="M11.63,286.29c-0.49,4.24-5.54,22.52-4.46,28.78c1.08,6.26,18.35,16.729,18.35,16.729
			l2.4-10.72l-9.57-9.359L20.94,294L11.63,286.29z"/>
		<path id="_Контур_2" fill="#EDEDED" d="M25,268.28c-3.479-1.614-7.612-0.362-9.61,2.91c-2.54,4.199-5.18,18.64-5.42,21.1
			c0,0,3.57,4.93,8.91,4.1L25,268.28z"/>
		<path id="Tracé_88" fill="#2B2A30" d="M44.71,472.07c3.756,1.041,7.771,0.556,11.17-1.352c2.689,0.08,17.3-6.17,19.29-0.92
			c1.74,4.602-4.58,8.86-8,9.682c-7.38,1.79-12.84,5.47-15.8,6.09c-2.21,0.47-5.07,0.77-6.83-1
			C42.46,482.52,42.64,474.82,44.71,472.07z"/>
		<path id="Tracé_89" fill="#9C73FF" d="M51.4,484.3c3-0.63,8.42-4.31,15.801-6.1c2.84-0.68,7.72-3.78,8.21-7.48
			c0.659,4.24-5,8-8.21,8.762c-7.381,1.79-12.841,5.47-15.801,6.09c-2.21,0.47-5.069,0.77-6.83-1c-0.467-0.504-0.81-1.11-1-1.771
			C46.17,485,49.19,484.76,51.4,484.3z"/>
		<path id="Tracé_90" fill="#2B2A30" d="M21,461.43c3.756,1.042,7.771,0.558,11.17-1.35c2.689,0.08,17.3-6.18,19.29-0.92
			c1.74,4.6-4.58,8.859-8,9.68c-7.38,1.79-12.84,5.47-15.8,6.09c-2.21,0.472-5.07,0.771-6.83-1C18.76,471.88,18.94,464.17,21,461.43
			z"/>
		<path id="Tracé_91" fill="#9C73FF" d="M27.7,473.65c3-0.62,8.42-4.302,15.8-6.09c2.84-0.682,7.72-3.79,8.21-7.48
			c0.66,4.24-5.05,8-8.21,8.76c-7.38,1.79-12.84,5.472-15.8,6.09c-2.21,0.472-5.07,0.771-6.83-1c-0.471-0.498-0.813-1.102-1-1.76
			C22.47,474.34,25.49,474.12,27.7,473.65z"/>
		<path id="_Контур_3" fill="#E52F34" d="M20.72,421.73c0.626-5.428,1.754-10.783,3.37-16c0,0-1-13.812-1.51-26.9
			C22,364,16.85,350.88,20.92,339l45.85,10.2c0,0-2.77,59.26-3.39,66.43c-0.336,5.584-1.021,11.143-2.05,16.642
			c-2.101,11.5-5.5,38.858-5.5,38.858c-4.851,2.812-11.21,1.25-11.21,1.25s0.35-34.59,0.659-42.88c0.381-10.12,0.69-9.35,0.69-9.35
			L44.46,395l-1-12.54c0,0-1.271,9.2-2.09,17.42c-0.721,7.17-2.45,13.65-4.391,27c-1.67,11.57-4.39,34.83-4.39,34.83
			c-4.85,2.82-11.43,0.48-11.43,0.48S19.4,431.77,20.72,421.73z"/>
		<path id="_Контур_4" fill="#FFCEA9" d="M27.41,268.53c3.489,0.17,6.09,1.07,6.529,0c0.373-1.803,0.641-3.626,0.801-5.46
			c-0.41-1-0.75-2.101-0.75-2.101c-4.391-2.699-5.771-7.439-6.351-13c-1-9.43,4.11-17.68,13.55-18.67
			c8.86-0.92,15.391,5.31,17.13,13.86c0.94,4.23,2.801,12.21,0.28,19.16c-1.41,3.89-3.229,7-5.05,7.568
			c-1.754-0.043-3.504-0.197-5.24-0.459l0,0c0,0-0.47,2.619-0.79,4.299c-0.319,1.682-0.2,2.57,3.15,4.631
			c3.35,2.061-5.061,6.301-10.561,5.891c-5.5-0.409-11.68-3.738-13.369-7.29C24.85,273.08,25,268.42,27.41,268.53z"/>
		<path id="_Контур_5" fill="#F4F4F4" d="M32.46,269.05c-1,2.41,1.49,5.36,8,7.42c6.51,2.062,7.149-0.59,7.149-0.59
			s9.62,4.381,12.75,6.57c3.931,2.75,5.681,10.71,6.21,24.15c0.61,15.56,0.671,38.64,0.15,42.619c0,0-7.36,7.329-16.77,6.561
			c-9.41-0.77-25.25-9.11-29.101-15.54c0.11-13.64,1.71-15.86-0.5-23.72c-5.06-18-7.72-25.352-5.26-37.301
			c2-9.851,4.86-11.08,8.75-11C26.727,268.339,29.604,268.616,32.46,269.05z"/>
		<path id="_Контур_6" fill="#FFCEA9" d="M81.42,319.47c-7.73,1.94-9.54-2.93-10.561-7c-2.46-9.77-3.779-18.59-5.609-24.13
			c-2.16-6.54-4.42-7.579-7.601-8.85c-3.729-1.5-6.939,1.649-5.689,10c1.46,9.85,3.39,16.76,7.069,28.399
			c1,3,3.12,8.449,6.351,11.061c4,3.22,10,3.08,19.07,0.83c3.869-1,8.119-3.28,15.449-6.7c2-0.92,3.5-1.53,7.271-3.29
			c3.77-1.76,7.7-4.689,9.68-7.561c1.98-2.869,1.641-4.681,1.23-5.33c-0.511-0.819-0.79-0.17-1.851,1
			c-1.527,2.035-3.412,3.776-5.56,5.141c0,0,2.439-2.52,3.77-4.16c1.182-1.453,2.163-3.057,2.92-4.77c0.7-1.67-0.739-3.94-1.84-2.75
			c-1.1,1.188-1.609,2.399-3.609,4.8c-1.054,1.274-2.256,2.421-3.58,3.409c1.237-1.676,2.342-3.448,3.3-5.299
			c1.27-2.59-3-1.24-5.39,1.278c-1.771,1.83-3.271,2.892-3.311,2.382c-0.04-0.512-3.49,3.188-5.24,5
			C95.79,315.05,88.76,317.62,81.42,319.47z"/>
		<path id="_Контур_7" fill="#EDEDED" d="M54.79,278.19c5.16-0.76,8.81,1.56,11.08,9.38c2.27,7.819,3.88,14.229,3.88,14.229
			c-2.041,2.951-5.139,5.007-8.65,5.74c-6.17,1.5-8.39-1.45-8.39-1.45s-1.71-8.189-2.78-13.77
			C48.86,286.74,48.41,279.14,54.79,278.19z"/>
		<path id="Tracé_92" fill="#3A2C6D" d="M58,242c0,0,8.149-12.4-9.51-14.92c-12.74-1.82-20.921,6.36-21.87,15.24
			c-0.9,8.489,4.319,17.3,8.1,20.79c1.84,0.66,5.8,1,11-1.33c0.212-2.311,0.295-4.631,0.25-6.95C45.97,254.83,39.78,241.77,58,242z"
			/>
	</g>
	<path id="Tracé_93" fill="#FFCEA9" d="M99.4,309.729c0,0-2-3.649-0.739-4.561c1.26-0.908,3.09,2.512,3.46,3.852
		s-0.141-0.41-0.141-0.41s-1.37-4.12-0.479-4.91c0.89-0.79,2.09,1,3.279,3.561c1.19,2.561,0.301-0.229,0.301-0.229
		s-2-4.132-1.13-4.7c1.13-0.771,3,1.682,4.109,3.891c1.11,2.211-1.49,4.819-1.49,4.819L99.4,309.729z"/>
	<g id="Mobile">
		<path id="Tracé_94" fill="#B1B4C4" d="M103.26,316.25l-7.49-4.33c-0.63-0.36-0.55-1,0.181-1.42L114,300.05
			c0.761-0.424,1.678-0.461,2.47-0.1l7.49,4.32c0.63,0.369,0.55,1-0.181,1.43l-18.09,10.439
			C104.941,316.554,104.043,316.595,103.26,316.25z"/>
		<path id="Tracé_95" fill="#B1B4C4" d="M95.34,311.3v-0.689l0.81,0.301L95.34,311.3z"/>
		<path id="Tracé_96" fill="#B1B4C4" d="M124.42,304.87v-0.66l-0.641,0.41L124.42,304.87z"/>
		<path id="Tracé_97" fill="#616E84" d="M103.26,315.66l-7.49-4.32c-0.63-0.37-0.55-1,0.181-1.43L114,299.47
			c0.761-0.424,1.678-0.461,2.47-0.1l7.49,4.32c0.63,0.369,0.55,1-0.181,1.43l-18.09,10.439
			C104.94,315.972,104.041,316.008,103.26,315.66z"/>
		
			<ellipse id="Ellipse_3" transform="matrix(-0.8686 0.4955 -0.4955 -0.8686 336.5129 537.4689)" fill="#757B89" cx="96.999" cy="313.349" rx="0.08" ry="0.14"/>
		
			<ellipse id="Ellipse_4" transform="matrix(-0.866 0.5001 -0.5001 -0.866 337.0997 534.3189)" fill="#757B89" cx="96.952" cy="312.33" rx="0.08" ry="0.141"/>
		
			<ellipse id="Ellipse_5" transform="matrix(-0.866 0.5001 -0.5001 -0.866 337.8901 534.5134)" fill="#757B89" cx="97.322" cy="312.533" rx="0.08" ry="0.14"/>
		
			<ellipse id="Ellipse_6" transform="matrix(-0.866 0.5001 -0.5001 -0.866 338.6609 534.7443)" fill="#757B89" cx="97.676" cy="312.752" rx="0.08" ry="0.139"/>
		
			<ellipse id="Ellipse_7" transform="matrix(-0.866 0.5001 -0.5001 -0.866 345.3419 536.5125)" fill="#757B89" cx="100.78" cy="314.531" rx="0.08" ry="0.14"/>
		
			<ellipse id="Ellipse_8" transform="matrix(-0.866 0.5001 -0.5001 -0.866 346.0797 536.7366)" fill="#757B89" cx="101.118" cy="314.742" rx="0.08" ry="0.141"/>
		
			<ellipse id="Ellipse_9" transform="matrix(-0.866 0.5001 -0.5001 -0.866 346.8838 536.9312)" fill="#757B89" cx="101.494" cy="314.947" rx="0.08" ry="0.14"/>
		
			<ellipse id="Ellipse_10" transform="matrix(-0.866 0.5001 -0.5001 -0.866 349.043 539.2744)" fill="#757B89" cx="102.26" cy="316.408" rx="0.08" ry="0.14"/>
		<path id="Tracé_98" fill="#757B89" d="M99.73,314.06l-1-0.568c-0.068-0.053-0.108-0.135-0.109-0.221l0,0
			c0-0.08,0.05-0.121,0.109-0.08l1,0.57c0.068,0.047,0.109,0.125,0.11,0.209l0,0C99.84,314.06,99.79,314.101,99.73,314.06z"/>
		<path id="Tracé_99" fill="#757B89" d="M122.16,306.511l-0.92,0.529c-0.061,0-0.11,0-0.11-0.08l0,0
			c0.005-0.08,0.046-0.152,0.11-0.199l0.92-0.531c0.06,0,0.1,0,0.1,0.08l0,0C122.264,306.39,122.226,306.466,122.16,306.511z"/>
		<path id="Tracé_100" fill="#757B89" d="M120.75,307.33l-0.92,0.53c-0.061,0-0.11,0-0.11-0.08l0,0c0-0.081,0.042-0.156,0.11-0.2
			l0.92-0.54c0.06,0,0.1,0,0.1,0.08l0,0C120.85,307.202,120.813,307.278,120.75,307.33L120.75,307.33z"/>
		<path id="Tracé_101" fill="#20232D" d="M103.26,315.56l-7.49-4.33c-0.63-0.358-0.55-1,0.181-1.42L114,299.36
			c0.762-0.42,1.677-0.457,2.47-0.101l7.49,4.319c0.63,0.37,0.55,1-0.181,1.432l-18.09,10.438
			C104.941,315.864,104.043,315.905,103.26,315.56L103.26,315.56z"/>
		<path id="Tracé_102" fill="#2B303F" d="M123.19,303.761l-2.92-1.689l0,0c-0.393,0.199-0.856,0.199-1.25,0
			c-0.199-0.067-0.306-0.283-0.237-0.481c0.037-0.112,0.126-0.2,0.237-0.237l0,0l-2.92-1.69c-0.505-0.261-1.104-0.261-1.609,0
			l-17.62,10.17c-0.258,0.085-0.396,0.362-0.312,0.62c0.049,0.146,0.164,0.262,0.312,0.311l7.1,4.09c0.505,0.261,1.104,0.261,1.61,0
			l17.609-10.17c0.254-0.076,0.399-0.344,0.323-0.598C123.467,303.929,123.345,303.806,123.19,303.761L123.19,303.761z"/>
		
			<linearGradient id="Tracé_103_1_" gradientUnits="userSpaceOnUse" x1="106.7244" y1="596.7841" x2="106.7244" y2="595.5511" gradientTransform="matrix(26.9986 0 0 15.5797 -2771.363 -6052.1685)">
			<stop  offset="0.21" style="stop-color:#FFFFFF;stop-opacity:0"/>
			<stop  offset="1" style="stop-color:#FFFFFF;stop-opacity:0.2"/>
		</linearGradient>
		<path id="Tracé_103" opacity="0.5" fill="url(#Tracé_103_1_)" enable-background="new    " d="M123.19,303.761l-2.92-1.689l0,0
			c-0.393,0.199-0.856,0.199-1.25,0c-0.199-0.067-0.306-0.283-0.237-0.481c0.037-0.112,0.126-0.2,0.237-0.237l0,0l-2.92-1.69
			c-0.505-0.261-1.104-0.261-1.609,0l-17.62,10.17c-0.258,0.085-0.396,0.362-0.312,0.62c0.049,0.146,0.164,0.262,0.312,0.311
			l7.1,4.09c0.505,0.261,1.104,0.261,1.61,0l17.609-10.17c0.254-0.076,0.399-0.344,0.323-0.598
			C123.467,303.929,123.345,303.806,123.19,303.761L123.19,303.761z"/>
		<ellipse id="Ellipse_11" fill="#2B303F" cx="119.45" cy="301.82" rx="0.34" ry="0.19"/>
		<path id="Tracé_104" opacity="0.1" fill="#FFFFFF" enable-background="new    " d="M119.35,301.88c-0.06,0-0.06-0.08,0-0.109
			c0.062-0.041,0.139-0.041,0.2,0c0.031,0.014,0.044,0.05,0.031,0.078c-0.006,0.015-0.018,0.025-0.031,0.031
			C119.487,301.911,119.413,301.911,119.35,301.88z"/>
	</g>
	<path id="Tracé_105" fill="#FFCEA9" d="M114.9,314.52c0,0,4-3.57,3.771-8.301c-0.24-3.301-2.23-0.921-2.23-0.921l-2,3.632
		c0,0-2,2.59-3.84,3.18c-1.406,0.135-2.805,0.342-4.189,0.619c-2.46,0.479-4.91,3.551-4.91,3.551l3.17,2.43L114.9,314.52z"/>
	<path id="Tracé_109" fill="#D9DAE2" d="M164.06,87.34l-23.5-13.57c-0.772-0.522-1.745-0.655-2.63-0.36l0,0
		c-0.188,0.082-0.366,0.186-0.53,0.31l-4.31,2.47l3,4.16v22.33c0,3.28,2,7.09,4.45,8.51l20.729,12l0.69,4.7l4.83-2.79
		c0.105-0.051,0.21-0.107,0.31-0.17l0,0c0.985-0.875,1.491-2.169,1.36-3.48v-25.6C168.52,92.57,166.52,88.76,164.06,87.34z"/>
	<path id="Tracé_110" fill="#EFF0F9" d="M159.21,127.55L135.71,114c-2.46-1.42-4.46-5.23-4.46-8.51V79.93c0-3.28,2-4.79,4.46-3.37
		l23.5,13.57c2.46,1.42,4.45,5.23,4.45,8.51v25.54C163.66,127.46,161.67,129,159.21,127.55z"/>
	<path id="Tracé_111" fill="#F9CB07" d="M147.46,89.99l3.18,9.29l7.13,5.31l-5.16,2.83l1.221,8.89l-6.37-7.54l-6.38,0.18l1.22-7.49
		l-5.16-8.78l7.13,2.92L147.46,89.99z"/>
	<path id="Tracé_109_1_" fill="#D9DAE2" d="M214.06,117.34l-23.5-13.57c-0.772-0.522-1.745-0.655-2.63-0.36l0,0
		c-0.188,0.082-0.366,0.186-0.53,0.31l-4.31,2.47l3,4.16v22.33c0,3.28,2,7.09,4.45,8.51l20.729,12l0.69,4.7l4.831-2.79
		c0.104-0.051,0.209-0.107,0.31-0.17l0,0c0.985-0.875,1.491-2.169,1.36-3.48v-25.6C218.52,122.57,216.52,118.76,214.06,117.34z"/>
	<path id="Tracé_110_1_" fill="#EFF0F9" d="M209.21,157.55L185.71,144c-2.46-1.42-4.46-5.23-4.46-8.51v-25.56
		c0-3.28,2-4.79,4.46-3.37l23.5,13.57c2.46,1.42,4.45,5.23,4.45,8.51v25.54C213.66,157.46,211.67,159,209.21,157.55z"/>
	<path id="Tracé_111_1_" fill="#F9CB07" d="M197.46,119.99l3.18,9.29l7.13,5.31l-5.16,2.83l1.221,8.89l-6.37-7.54l-6.38,0.18
		l1.22-7.49l-5.16-8.78l7.13,2.92L197.46,119.99z"/>
	<path id="Tracé_109_2_" fill="#D9DAE2" d="M264.06,147.34l-23.5-13.57c-0.772-0.522-1.745-0.655-2.63-0.36l0,0
		c-0.188,0.082-0.366,0.186-0.53,0.31l-4.311,2.47l3,4.16v22.33c0,3.28,2,7.09,4.451,8.51l20.729,12l0.69,4.7l4.83-2.79
		c0.104-0.051,0.209-0.107,0.31-0.17l0,0c0.985-0.875,1.491-2.169,1.36-3.48v-25.6C268.52,152.57,266.52,148.76,264.06,147.34z"/>
	<path id="Tracé_110_2_" fill="#EFF0F9" d="M259.21,187.55L235.71,174c-2.461-1.42-4.461-5.23-4.461-8.51v-25.56
		c0-3.28,2-4.79,4.461-3.37l23.5,13.57c2.459,1.42,4.449,5.23,4.449,8.51v25.54C263.66,187.46,261.669,189,259.21,187.55z"/>
	<path id="Tracé_111_2_" fill="#F9CB07" d="M247.46,149.99l3.18,9.29l7.13,5.31l-5.16,2.83l1.221,8.89l-6.369-7.54l-6.381,0.18
		l1.221-7.49l-5.16-8.78l7.13,2.92L247.46,149.99z"/>
	<path id="Tracé_109_3_" fill="#D9DAE2" d="M314.06,177.34l-23.5-13.57c-0.772-0.522-1.745-0.655-2.63-0.36l0,0
		c-0.188,0.082-0.366,0.186-0.53,0.31l-4.311,2.47l3,4.16v22.33c0,3.28,2,7.09,4.451,8.51l20.729,12l0.69,4.7l4.83-2.79
		c0.104-0.051,0.209-0.107,0.31-0.17l0,0c0.985-0.875,1.491-2.169,1.36-3.48v-25.6C318.52,182.57,316.52,178.76,314.06,177.34z"/>
	<path id="Tracé_110_3_" fill="#EFF0F9" d="M309.21,217.55L285.71,204c-2.461-1.42-4.461-5.23-4.461-8.51v-25.56
		c0-3.28,2-4.79,4.461-3.37l23.5,13.57c2.459,1.42,4.449,5.23,4.449,8.51v25.54C313.66,217.46,311.669,219,309.21,217.55z"/>
	<path id="Tracé_111_3_" fill="#F9CB07" d="M297.46,179.99l3.18,9.29l7.13,5.31l-5.16,2.83l1.221,8.89l-6.369-7.54l-6.381,0.18
		l1.221-7.49l-5.16-8.78l7.13,2.92L297.46,179.99z"/>
	<path id="Tracé_109_4_" fill="#D9DAE2" d="M364.06,207.34l-23.5-13.57c-0.772-0.522-1.744-0.655-2.63-0.36l0,0
		c-0.188,0.082-0.365,0.186-0.529,0.31l-4.312,2.47l3,4.16v22.33c0,3.28,2,7.09,4.451,8.51l20.729,12l0.69,4.7l4.83-2.79
		c0.104-0.051,0.209-0.107,0.31-0.17l0,0c0.985-0.875,1.491-2.169,1.36-3.48v-25.6C368.52,212.57,366.52,208.76,364.06,207.34z"/>
	<path id="Tracé_110_4_" fill="#EFF0F9" d="M359.21,247.55L335.71,234c-2.461-1.42-4.461-5.23-4.461-8.51v-25.56
		c0-3.28,2-4.79,4.461-3.37l23.5,13.57c2.459,1.42,4.449,5.23,4.449,8.51v25.54C363.66,247.46,361.669,249,359.21,247.55z"/>
	<path id="Tracé_111_4_" fill="#F9CB07" d="M347.46,209.99l3.18,9.29l7.13,5.31l-5.159,2.83l1.22,8.89l-6.369-7.54l-6.381,0.18
		l1.221-7.49l-5.16-8.78l7.131,2.92L347.46,209.99z"/>
</g>
<g>
	<path id="Tracé_226" fill="#DADCE5" d="M291.969,126.926l-46.981-27.151c-0.671-0.478-1.072-1.247-1.085-2.07v-2.478
		c0-0.798,0.484-1.171,1.085-0.849l46.981,27.151c0.671,0.481,1.076,1.252,1.086,2.079v2.477
		C293.055,126.91,292.571,127.275,291.969,126.926z"/>
	<path id="Tracé_227" fill="#DADCE5" d="M291.969,136.328l-46.981-27.151c-0.672-0.479-1.074-1.252-1.085-2.079v-2.478
		c0-0.797,0.484-1.162,1.085-0.849l46.981,27.152c0.67,0.478,1.074,1.247,1.086,2.071v2.478
		C293.055,136.303,292.571,136.684,291.969,136.328z"/>
	<path id="Tracé_228" fill="#DADCE5" d="M279.667,138.619l-34.68-20.024c-0.671-0.478-1.072-1.247-1.085-2.071v-2.477
		c0-0.798,0.484-1.171,1.085-0.849l34.68,20.092c0.672,0.48,1.075,1.253,1.086,2.079v2.469
		C280.752,138.602,280.269,138.966,279.667,138.619z"/>
</g>
<g>
	<path id="Tracé_226_1_" fill="#DADCE5" d="M291.969,231.926l-46.981-27.151c-0.671-0.478-1.072-1.247-1.085-2.07v-2.478
		c0-0.798,0.484-1.171,1.085-0.849l46.981,27.151c0.671,0.481,1.076,1.252,1.086,2.079v2.477
		C293.055,231.91,292.571,232.275,291.969,231.926z"/>
	<path id="Tracé_227_1_" fill="#DADCE5" d="M291.969,241.328l-46.981-27.151c-0.672-0.479-1.074-1.252-1.085-2.079v-2.478
		c0-0.797,0.484-1.162,1.085-0.849l46.981,27.152c0.67,0.478,1.074,1.247,1.086,2.071v2.478
		C293.055,241.303,292.571,241.684,291.969,241.328z"/>
	<path id="Tracé_228_1_" fill="#DADCE5" d="M279.667,243.619l-34.68-20.024c-0.671-0.478-1.072-1.247-1.085-2.071v-2.477
		c0-0.798,0.484-1.171,1.085-0.849l34.68,20.092c0.672,0.48,1.075,1.253,1.086,2.079v2.469
		C280.752,243.602,280.269,243.966,279.667,243.619z"/>
</g>
<g>
	<path id="Tracé_226_2_" fill="#DADCE5" d="M291.969,326.927l-46.981-27.152c-0.671-0.477-1.072-1.246-1.085-2.068v-2.479
		c0-0.797,0.484-1.17,1.085-0.849l46.981,27.151c0.671,0.479,1.076,1.252,1.086,2.078v2.479
		C293.055,326.909,292.571,327.274,291.969,326.927z"/>
	<path id="Tracé_227_2_" fill="#DADCE5" d="M291.969,336.327l-46.981-27.15c-0.672-0.48-1.074-1.253-1.085-2.08v-2.477
		c0-0.798,0.484-1.162,1.085-0.85l46.981,27.151c0.67,0.478,1.074,1.246,1.086,2.07v2.479
		C293.055,336.304,292.571,336.685,291.969,336.327z"/>
	<path id="Tracé_228_2_" display="none" fill="#DADCE5" d="M279.667,338.619l-34.68-20.024c-0.671-0.479-1.072-1.246-1.085-2.07
		v-2.478c0-0.798,0.484-1.171,1.085-0.849l34.68,20.092c0.672,0.48,1.075,1.253,1.086,2.079v2.47
		C280.752,338.603,280.269,338.966,279.667,338.619z"/>
</g>
<g>
	<path fill="#FFFFFF" d="M230.909,103.956c1.628,1.16,3.162,1.751,4.531,1.855v12.953l-4.483-7.537l-4.581,1.075V99.349
		C227.745,101.198,229.278,102.793,230.909,103.956"/>
	<g>
		<g>
			<g>
				<defs>
					<path id="SVGID_1_" d="M230.909,103.955c-1.632-1.163-3.165-2.758-4.533-4.605v12.953l4.581-1.075l4.484,7.538v-12.953
						C234.073,105.708,232.537,105.114,230.909,103.955"/>
				</defs>
				<clipPath id="SVGID_2_">
					<use xlink:href="#SVGID_1_"  overflow="visible"/>
				</clipPath>
				<polygon clip-path="url(#SVGID_2_)" fill="#0E559E" points="224.954,95.398 230.03,99.016 230.03,118.202 224.954,114.584 				
					"/>
			</g>
		</g>
		<g>
			<g>
				<defs>
					<path id="SVGID_3_" d="M230.909,103.955c-1.632-1.163-3.165-2.758-4.533-4.605v12.953l4.581-1.075l4.484,7.538v-12.953
						C234.073,105.708,232.537,105.114,230.909,103.955"/>
				</defs>
				<clipPath id="SVGID_4_">
					<use xlink:href="#SVGID_3_"  overflow="visible"/>
				</clipPath>
				<polygon clip-path="url(#SVGID_4_)" fill="#E43433" points="232.016,100.432 237.093,104.051 237.093,123.237 232.016,119.618 
									"/>
			</g>
		</g>
	</g>
	<path fill="#175298" d="M230.921,81.841c-4.328-3.085-7.837-1.25-7.837,4.095c0,5.339,3.51,12.175,7.837,15.26
		c4.329,3.085,7.84,1.254,7.84-4.085C238.761,91.765,235.25,84.926,230.921,81.841"/>
	<path fill="#FFFFFF" d="M230.921,84.101c-3.316-2.364-6.007-0.958-6.007,3.14c0,4.092,2.689,9.331,6.007,11.695
		c3.317,2.365,6.009,0.961,6.009-3.131C236.929,91.707,234.24,86.465,230.921,84.101"/>
	<path fill="#E43433" d="M230.921,86.062c-2.438-1.738-4.421-0.708-4.421,2.307c0,3.012,1.981,6.871,4.421,8.609
		c2.438,1.739,4.423,0.707,4.423-2.306C235.343,91.656,233.361,87.8,230.921,86.062"/>
	<polygon fill="#FFFFFF" points="232.375,93.199 233.858,92.502 231.82,90.702 230.921,87.777 230.026,89.423 227.989,88.319 
		229.47,91.129 229.111,93.375 230.921,93.47 232.734,95.957 	"/>
</g>
<g>
	<path fill="#FFFFFF" d="M230.909,208.956c1.628,1.16,3.162,1.751,4.531,1.855v12.953l-4.483-7.537l-4.581,1.075v-12.953
		C227.745,206.198,229.278,207.793,230.909,208.956"/>
	<g>
		<g>
			<g>
				<defs>
					<path id="SVGID_5_" d="M230.909,208.955c-1.632-1.163-3.165-2.758-4.533-4.605v12.953l4.581-1.075l4.484,7.538v-12.953
						C234.073,210.708,232.537,210.114,230.909,208.955"/>
				</defs>
				<clipPath id="SVGID_6_">
					<use xlink:href="#SVGID_5_"  overflow="visible"/>
				</clipPath>
				<polygon clip-path="url(#SVGID_6_)" fill="#0E559E" points="224.954,200.398 230.03,204.016 230.03,223.202 224.954,219.584 
									"/>
			</g>
		</g>
		<g>
			<g>
				<defs>
					<path id="SVGID_7_" d="M230.909,208.955c-1.632-1.163-3.165-2.758-4.533-4.605v12.953l4.581-1.075l4.484,7.538v-12.953
						C234.073,210.708,232.537,210.114,230.909,208.955"/>
				</defs>
				<clipPath id="SVGID_8_">
					<use xlink:href="#SVGID_7_"  overflow="visible"/>
				</clipPath>
				<polygon clip-path="url(#SVGID_8_)" fill="#E43433" points="232.016,205.432 237.093,209.051 237.093,228.237 232.016,224.618 
									"/>
			</g>
		</g>
	</g>
	<path fill="#175298" d="M230.921,186.841c-4.328-3.085-7.837-1.25-7.837,4.095c0,5.339,3.51,12.175,7.837,15.26
		c4.329,3.085,7.84,1.254,7.84-4.085C238.761,196.765,235.25,189.926,230.921,186.841"/>
	<path fill="#FFFFFF" d="M230.921,189.101c-3.316-2.364-6.007-0.958-6.007,3.14c0,4.092,2.689,9.331,6.007,11.695
		c3.317,2.365,6.009,0.961,6.009-3.131C236.929,196.707,234.24,191.465,230.921,189.101"/>
	<path fill="#E43433" d="M230.921,191.062c-2.438-1.738-4.421-0.708-4.421,2.307c0,3.012,1.981,6.871,4.421,8.609
		c2.438,1.739,4.423,0.707,4.423-2.306C235.343,196.656,233.361,192.8,230.921,191.062"/>
	<polygon fill="#FFFFFF" points="232.375,198.199 233.858,197.502 231.82,195.702 230.921,192.777 230.026,194.423 227.989,193.319 
		229.47,196.129 229.111,198.375 230.921,198.47 232.734,200.957 	"/>
</g>
<g>
	<path display="none" fill="#FFFFFF" d="M230.909,304.956c1.628,1.16,3.162,1.751,4.531,1.855v12.953l-4.483-7.537l-4.581,1.073
		v-12.952C227.745,302.198,229.278,303.794,230.909,304.956"/>
	<g display="none">
		<g display="inline">
			<g>
				<defs>
					<path id="SVGID_9_" d="M230.909,304.954c-1.632-1.162-3.165-2.758-4.533-4.605v12.953l4.581-1.074l4.484,7.537v-12.953
						C234.073,306.708,232.537,306.114,230.909,304.954"/>
				</defs>
				<clipPath id="SVGID_10_">
					<use xlink:href="#SVGID_9_"  overflow="visible"/>
				</clipPath>
				<polygon clip-path="url(#SVGID_10_)" fill="#0E559E" points="224.954,296.397 230.03,300.017 230.03,319.202 224.954,315.585 
									"/>
			</g>
		</g>
		<g display="inline">
			<g>
				<defs>
					<path id="SVGID_11_" d="M230.909,304.954c-1.632-1.162-3.165-2.758-4.533-4.605v12.953l4.581-1.074l4.484,7.537v-12.953
						C234.073,306.708,232.537,306.114,230.909,304.954"/>
				</defs>
				<clipPath id="SVGID_12_">
					<use xlink:href="#SVGID_11_"  overflow="visible"/>
				</clipPath>
				<polygon clip-path="url(#SVGID_12_)" fill="#E43433" points="232.016,301.433 237.093,305.051 237.093,324.237 232.016,320.618 
									"/>
			</g>
		</g>
	</g>
	<path fill="#175298" d="M230.921,282.841c-4.328-3.086-7.837-1.25-7.837,4.096c0,5.338,3.51,12.174,7.837,15.26
		c4.329,3.085,7.84,1.254,7.84-4.086C238.761,292.765,235.25,285.927,230.921,282.841"/>
	<path fill="#FFFFFF" d="M230.921,285.101c-3.316-2.363-6.007-0.957-6.007,3.142c0,4.092,2.689,9.33,6.007,11.694
		c3.317,2.363,6.009,0.961,6.009-3.131C236.929,292.706,234.24,287.466,230.921,285.101"/>
	<path fill="#E43433" d="M230.921,287.062c-2.438-1.737-4.421-0.709-4.421,2.308c0,3.012,1.981,6.871,4.421,8.608
		c2.438,1.738,4.423,0.707,4.423-2.307C235.343,292.655,233.361,288.8,230.921,287.062"/>
	<polygon fill="#FFFFFF" points="232.375,294.199 233.858,293.502 231.82,291.702 230.921,288.776 230.026,290.423 227.989,289.319 
		229.47,292.13 229.111,294.374 230.921,294.47 232.734,296.957 	"/>
</g>
</svg>
